<svg width="186" height="45" viewBox="0 0 186 45" fill="none" xmlns="http://www.w3.org/2000/svg">
<path d="M14.2832 22.5C14.2832 26.6438 17.4774 30 21.4279 30H30.7104C32.7206 30.0081 34.7053 30.4495 36.5294 31.294C38.3535 32.1385 39.9741 33.3663 41.2806 34.8938C43.6929 37.7072 45.013 41.2942 44.9999 45H22.4968C16.8276 45.0011 11.367 42.8626 7.20651 39.0121C3.04607 35.1616 0.492467 29.8829 0.0562554 24.2313C0.0562554 23.85 0.0125017 23.4688 0 23.0813C0 22.8875 0 22.6938 0 22.5C0 22.3063 0 22.1125 0 21.9187C0 21.5312 -2.29261e-06 21.15 0.0562554 20.7688C0.492467 15.1171 3.04607 9.83841 7.20651 5.98792C11.367 2.13743 16.8276 -0.00105869 22.4968 3.93191e-07H33.7484V15H21.4279C17.4961 15 14.2832 18.3563 14.2832 22.5Z" fill="#4458FE"/>
<path d="M73.969 33.75C71.9789 33.75 70.2884 33.4056 68.8974 32.7167C67.5279 32.0063 66.4794 31.0052 65.7518 29.7135C65.0243 28.4003 64.6177 26.8288 64.5321 24.999C64.5107 24.1163 64.5 23.1691 64.5 22.1573C64.5 21.1455 64.5107 20.1767 64.5321 19.251C64.6177 17.4427 65.0243 15.8819 65.7518 14.5687C66.5008 13.2556 67.56 12.2545 68.9295 11.5656C70.3205 10.8552 72.0003 10.5 73.969 10.5C75.4241 10.5 76.7294 10.6938 77.8849 11.0813C79.0405 11.4688 80.0248 12.0069 80.838 12.6958C81.6511 13.3632 82.2824 14.149 82.7317 15.0531C83.1811 15.9573 83.4165 16.9368 83.4379 17.9917C83.4593 18.1854 83.3951 18.3469 83.2453 18.476C83.1169 18.6052 82.9564 18.6698 82.7638 18.6698H79.7145C79.4791 18.6698 79.2865 18.616 79.1368 18.5083C78.987 18.3792 78.88 18.1747 78.8158 17.8948C78.4734 16.474 77.8849 15.5052 77.0504 14.9885C76.2158 14.4719 75.178 14.2135 73.9369 14.2135C72.5031 14.2135 71.3583 14.6226 70.5024 15.4406C69.6464 16.2372 69.1863 17.5611 69.1221 19.4125C69.0579 21.1778 69.0579 22.9861 69.1221 24.8375C69.1863 26.6889 69.6464 28.0236 70.5024 28.8417C71.3583 29.6382 72.5031 30.0365 73.9369 30.0365C75.178 30.0365 76.2158 29.7781 77.0504 29.2615C77.9063 28.7233 78.4948 27.7545 78.8158 26.3552C78.88 26.0538 78.987 25.8493 79.1368 25.7417C79.2865 25.634 79.4791 25.5802 79.7145 25.5802H82.7638C82.9564 25.5802 83.1169 25.6448 83.2453 25.774C83.3951 25.9031 83.4593 26.0646 83.4379 26.2583C83.4165 27.3132 83.1811 28.2927 82.7317 29.1969C82.2824 30.101 81.6511 30.8976 80.838 31.5865C80.0248 32.2538 79.0405 32.7813 77.8849 33.1688C76.7294 33.5563 75.4241 33.75 73.969 33.75Z" fill="#232253"/>
<path d="M85.6136 33.4271C85.4424 33.4271 85.2819 33.3625 85.1321 33.2333C85.0037 33.1042 84.9395 32.9427 84.9395 32.749C84.9395 32.6628 84.9609 32.566 85.0037 32.4583L92.7393 11.6302C92.8035 11.4149 92.9212 11.2319 93.0924 11.0813C93.285 10.909 93.5418 10.8229 93.8628 10.8229H97.3615C97.6825 10.8229 97.9285 10.909 98.0997 11.0813C98.2709 11.2319 98.3993 11.4149 98.4849 11.6302L106.221 32.4583C106.242 32.566 106.253 32.6628 106.253 32.749C106.253 32.9427 106.188 33.1042 106.06 33.2333C105.932 33.3625 105.782 33.4271 105.611 33.4271H102.818C102.519 33.4271 102.294 33.3625 102.144 33.2333C102.016 33.0826 101.93 32.9427 101.887 32.8135L100.379 28.874H90.8456L89.3369 32.8135C89.2941 32.9427 89.1978 33.0826 89.0481 33.2333C88.9197 33.3625 88.7057 33.4271 88.4061 33.4271H85.6136ZM91.969 25.1604H99.2553L95.5961 15.1823L91.969 25.1604Z" fill="#232253"/>
<path d="M112.612 33.4271C112.398 33.4271 112.216 33.3517 112.066 33.201C111.916 33.0503 111.841 32.8674 111.841 32.6521V14.7948H105.903C105.689 14.7948 105.507 14.7194 105.358 14.5687C105.208 14.4181 105.133 14.2351 105.133 14.0198V11.6302C105.133 11.3934 105.208 11.1997 105.358 11.049C105.507 10.8983 105.689 10.8229 105.903 10.8229H122.273C122.509 10.8229 122.701 10.8983 122.851 11.049C123.001 11.1997 123.076 11.3934 123.076 11.6302V14.0198C123.076 14.2351 123.001 14.4181 122.851 14.5687C122.701 14.7194 122.509 14.7948 122.273 14.7948H116.367V32.6521C116.367 32.8674 116.292 33.0503 116.143 33.201C115.993 33.3517 115.8 33.4271 115.565 33.4271H112.612Z" fill="#232253"/>
<path d="M132.881 33.4271C132.538 33.4271 132.271 33.341 132.078 33.1688C131.886 32.9965 131.747 32.7812 131.661 32.5229L124.792 11.7917C124.749 11.684 124.728 11.5872 124.728 11.501C124.728 11.3073 124.792 11.1458 124.92 11.0167C125.049 10.8875 125.209 10.8229 125.402 10.8229H128.227C128.526 10.8229 128.751 10.909 128.901 11.0813C129.072 11.2319 129.179 11.3826 129.222 11.5333L134.646 28.1635L140.071 11.5333C140.114 11.3826 140.21 11.2319 140.36 11.0813C140.531 10.909 140.766 10.8229 141.066 10.8229H143.89C144.062 10.8229 144.211 10.8875 144.34 11.0167C144.49 11.1458 144.565 11.3073 144.565 11.501C144.565 11.5872 144.543 11.684 144.5 11.7917L137.631 32.5229C137.546 32.7812 137.407 32.9965 137.214 33.1688C137.021 33.341 136.754 33.4271 136.412 33.4271H132.881Z" fill="#232253"/>
<path d="M148.732 33.4271C148.518 33.4271 148.336 33.3517 148.186 33.201C148.036 33.0503 147.961 32.8674 147.961 32.6521V22.1411V11.6302C147.961 11.3934 148.036 11.1997 148.186 11.049C148.336 10.8983 148.518 10.8229 148.732 10.8229H162.855C163.09 10.8229 163.283 10.8983 163.433 11.049C163.583 11.1997 163.657 11.3934 163.657 11.6302V13.7615C163.657 13.9767 163.583 14.1597 163.433 14.3104C163.283 14.4611 163.09 14.5365 162.855 14.5365H152.295V20.2521H162.149C162.384 20.2521 162.577 20.3274 162.727 20.4781C162.876 20.6073 162.951 20.7903 162.951 21.0271V23.0292C162.951 23.266 162.876 23.4597 162.727 23.6104C162.577 23.7396 162.384 23.8042 162.149 23.8042H152.295V29.7135H163.112C163.347 29.7135 163.54 29.7889 163.69 29.9396C163.839 30.0903 163.914 30.284 163.914 30.5208V32.6521C163.914 32.8674 163.839 33.0503 163.69 33.201C163.54 33.3517 163.347 33.4271 163.112 33.4271H148.732Z" fill="#232253"/>
<path d="M174.605 33.4271C174.391 33.4271 174.209 33.3517 174.059 33.201C173.91 33.0503 173.835 32.8674 173.835 32.6521V25.3542L166.26 11.8562C166.238 11.8132 166.217 11.7594 166.195 11.6948C166.174 11.6302 166.163 11.5656 166.163 11.501C166.163 11.3073 166.228 11.1458 166.356 11.0167C166.484 10.8875 166.634 10.8229 166.805 10.8229H169.662C169.919 10.8229 170.122 10.8875 170.272 11.0167C170.443 11.1458 170.561 11.2858 170.625 11.4365L176.082 20.8333L181.506 11.4365C181.592 11.2858 181.71 11.1458 181.859 11.0167C182.031 10.8875 182.245 10.8229 182.501 10.8229H185.326C185.519 10.8229 185.679 10.8875 185.807 11.0167C185.936 11.1458 186 11.3073 186 11.501C186 11.5656 185.989 11.6302 185.968 11.6948C185.968 11.7594 185.947 11.8132 185.904 11.8562L178.329 25.3542V32.6521C178.329 32.8674 178.254 33.0503 178.104 33.201C177.954 33.3517 177.761 33.4271 177.526 33.4271H174.605Z" fill="#232253"/>
</svg>
