<svg width="186" height="45" viewBox="0 0 186 45" fill="none" xmlns="http://www.w3.org/2000/svg">
<g clip-path="url(#clip0_1131_77)">
<path d="M14.2832 22.5C14.2832 26.6438 17.4774 30 21.4279 30H30.7104C32.7206 30.0081 34.7053 30.4495 36.5294 31.294C38.3535 32.1385 39.9741 33.3663 41.2806 34.8938C43.6929 37.7072 45.013 41.2942 44.9999 45H22.4968C16.8276 45.0011 11.367 42.8626 7.20651 39.0121C3.04607 35.1616 0.492467 29.8829 0.0562554 24.2313C0.0562554 23.85 0.0125017 23.4688 0 23.0813C0 22.8875 0 22.6938 0 22.5C0 22.3063 0 22.1125 0 21.9187C0 21.5312 -2.29105e-06 21.15 0.0562554 20.7688C0.492467 15.1171 3.04607 9.83841 7.20651 5.98792C11.367 2.13743 16.8276 -0.00105869 22.4968 3.93194e-07H33.7484V15H21.4279C17.4961 15 14.2832 18.3563 14.2832 22.5Z" fill="#4458FE"/>
<path d="M73.969 33.75C71.9789 33.75 70.2884 33.4056 68.8974 32.7167C67.5279 32.0063 66.4794 31.0052 65.7518 29.7135C65.0243 28.4003 64.6177 26.8288 64.5321 24.999C64.5107 24.1163 64.5 23.1691 64.5 22.1573C64.5 21.1455 64.5107 20.1767 64.5321 19.251C64.6177 17.4427 65.0243 15.8819 65.7518 14.5687C66.5008 13.2556 67.56 12.2545 68.9295 11.5656C70.3205 10.8552 72.0003 10.5 73.969 10.5C75.4241 10.5 76.7294 10.6938 77.8849 11.0813C79.0405 11.4688 80.0248 12.0069 80.838 12.6958C81.6511 13.3632 82.2824 14.149 82.7317 15.0531C83.1811 15.9573 83.4165 16.9368 83.4379 17.9917C83.4593 18.1854 83.3951 18.3469 83.2453 18.476C83.1169 18.6052 82.9564 18.6698 82.7638 18.6698H79.7145C79.4791 18.6698 79.2865 18.616 79.1368 18.5083C78.987 18.3792 78.88 18.1747 78.8158 17.8948C78.4734 16.474 77.8849 15.5052 77.0504 14.9885C76.2158 14.4719 75.178 14.2135 73.9369 14.2135C72.5031 14.2135 71.3583 14.6226 70.5024 15.4406C69.6464 16.2372 69.1863 17.5611 69.1221 19.4125C69.0579 21.1778 69.0579 22.9861 69.1221 24.8375C69.1863 26.6889 69.6464 28.0236 70.5024 28.8417C71.3583 29.6382 72.5031 30.0365 73.9369 30.0365C75.178 30.0365 76.2158 29.7781 77.0504 29.2615C77.9063 28.7233 78.4948 27.7545 78.8158 26.3552C78.88 26.0538 78.987 25.8493 79.1368 25.7417C79.2865 25.634 79.4791 25.5802 79.7145 25.5802H82.7638C82.9564 25.5802 83.1169 25.6448 83.2453 25.774C83.3951 25.9031 83.4593 26.0646 83.4379 26.2583C83.4165 27.3132 83.1811 28.2927 82.7317 29.1969C82.2824 30.101 81.6511 30.8976 80.838 31.5865C80.0248 32.2538 79.0405 32.7813 77.8849 33.1688C76.7294 33.5563 75.4241 33.75 73.969 33.75Z" fill="white"/>
<path d="M85.6136 33.4272C85.4424 33.4272 85.2819 33.3626 85.1321 33.2334C85.0037 33.1043 84.9395 32.9428 84.9395 32.7491C84.9395 32.6629 84.9609 32.5661 85.0037 32.4584L92.7393 11.6303C92.8035 11.415 92.9212 11.232 93.0924 11.0814C93.285 10.9091 93.5418 10.823 93.8628 10.823H97.3615C97.6825 10.823 97.9285 10.9091 98.0997 11.0814C98.2709 11.232 98.3993 11.415 98.4849 11.6303L106.221 32.4584C106.242 32.5661 106.253 32.6629 106.253 32.7491C106.253 32.9428 106.188 33.1043 106.06 33.2334C105.932 33.3626 105.782 33.4272 105.611 33.4272H102.818C102.519 33.4272 102.294 33.3626 102.144 33.2334C102.016 33.0827 101.93 32.9428 101.887 32.8136L100.379 28.8741H90.8456L89.3369 32.8136C89.2941 32.9428 89.1978 33.0827 89.0481 33.2334C88.9197 33.3626 88.7057 33.4272 88.4061 33.4272H85.6136ZM91.969 25.1605H99.2553L95.5961 15.1824L91.969 25.1605Z" fill="white"/>
<path d="M112.612 33.4272C112.398 33.4272 112.216 33.3518 112.066 33.2011C111.916 33.0504 111.841 32.8675 111.841 32.6522V14.7949H105.903C105.689 14.7949 105.507 14.7195 105.358 14.5688C105.208 14.4182 105.133 14.2352 105.133 14.0199V11.6303C105.133 11.3935 105.208 11.1998 105.358 11.0491C105.507 10.8984 105.689 10.823 105.903 10.823H122.273C122.509 10.823 122.701 10.8984 122.851 11.0491C123.001 11.1998 123.076 11.3935 123.076 11.6303V14.0199C123.076 14.2352 123.001 14.4182 122.851 14.5688C122.701 14.7195 122.509 14.7949 122.273 14.7949H116.367V32.6522C116.367 32.8675 116.292 33.0504 116.143 33.2011C115.993 33.3518 115.8 33.4272 115.565 33.4272H112.612Z" fill="white"/>
<path d="M132.881 33.4272C132.538 33.4272 132.271 33.3411 132.078 33.1689C131.886 32.9966 131.747 32.7813 131.661 32.523L124.792 11.7918C124.749 11.6841 124.728 11.5873 124.728 11.5011C124.728 11.3074 124.792 11.1459 124.92 11.0168C125.049 10.8876 125.209 10.823 125.402 10.823H128.227C128.526 10.823 128.751 10.9091 128.901 11.0814C129.072 11.232 129.179 11.3827 129.222 11.5334L134.646 28.1636L140.071 11.5334C140.114 11.3827 140.21 11.232 140.36 11.0814C140.531 10.9091 140.766 10.823 141.066 10.823H143.89C144.062 10.823 144.211 10.8876 144.34 11.0168C144.49 11.1459 144.565 11.3074 144.565 11.5011C144.565 11.5873 144.543 11.6841 144.5 11.7918L137.631 32.523C137.546 32.7813 137.407 32.9966 137.214 33.1689C137.021 33.3411 136.754 33.4272 136.412 33.4272H132.881Z" fill="white"/>
<path d="M148.732 33.4272C148.518 33.4272 148.336 33.3518 148.186 33.2011C148.036 33.0504 147.961 32.8675 147.961 32.6522V22.1412V11.6303C147.961 11.3935 148.036 11.1998 148.186 11.0491C148.336 10.8984 148.518 10.823 148.732 10.823H162.855C163.09 10.823 163.283 10.8984 163.433 11.0491C163.583 11.1998 163.657 11.3935 163.657 11.6303V13.7616C163.657 13.9768 163.583 14.1598 163.433 14.3105C163.283 14.4612 163.09 14.5366 162.855 14.5366H152.295V20.2522H162.149C162.384 20.2522 162.577 20.3275 162.727 20.4782C162.876 20.6074 162.951 20.7904 162.951 21.0272V23.0293C162.951 23.2661 162.876 23.4598 162.727 23.6105C162.577 23.7397 162.384 23.8043 162.149 23.8043H152.295V29.7136H163.112C163.347 29.7136 163.54 29.789 163.69 29.9397C163.839 30.0904 163.914 30.2841 163.914 30.5209V32.6522C163.914 32.8675 163.839 33.0504 163.69 33.2011C163.54 33.3518 163.347 33.4272 163.112 33.4272H148.732Z" fill="white"/>
<path d="M174.605 33.4272C174.391 33.4272 174.209 33.3518 174.059 33.2011C173.91 33.0504 173.835 32.8675 173.835 32.6522V25.3543L166.26 11.8563C166.238 11.8133 166.217 11.7595 166.195 11.6949C166.174 11.6303 166.163 11.5657 166.163 11.5011C166.163 11.3074 166.228 11.1459 166.356 11.0168C166.484 10.8876 166.634 10.823 166.805 10.823H169.662C169.919 10.823 170.122 10.8876 170.272 11.0168C170.443 11.1459 170.561 11.2859 170.625 11.4366L176.082 20.8334L181.506 11.4366C181.592 11.2859 181.71 11.1459 181.859 11.0168C182.031 10.8876 182.245 10.823 182.501 10.823H185.326C185.519 10.823 185.679 10.8876 185.807 11.0168C185.936 11.1459 186 11.3074 186 11.5011C186 11.5657 185.989 11.6303 185.968 11.6949C185.968 11.7595 185.947 11.8133 185.904 11.8563L178.329 25.3543V32.6522C178.329 32.8675 178.254 33.0504 178.104 33.2011C177.954 33.3518 177.761 33.4272 177.526 33.4272H174.605Z" fill="white"/>
</g>
<defs>
<clipPath id="clip0_1131_77">
<rect width="186" height="45" fill="white"/>
</clipPath>
</defs>
</svg>
