<?xml version="1.0" encoding="UTF-8" standalone="no"?>
<svg
   xmlns:dc="http://purl.org/dc/elements/1.1/"
   xmlns:cc="http://creativecommons.org/ns#"
   xmlns:rdf="http://www.w3.org/1999/02/22-rdf-syntax-ns#"
   xmlns:svg="http://www.w3.org/2000/svg"
   xmlns="http://www.w3.org/2000/svg"
   viewBox="0 0 34.967999 34.967999"
   height="34.967999"
   width="34.967999"
   xml:space="preserve"
   id="svg2"
   version="1.1"><metadata
     id="metadata8"><rdf:RDF><cc:Work
         rdf:about=""><dc:format>image/svg+xml</dc:format><dc:type
           rdf:resource="http://purl.org/dc/dcmitype/StillImage" /></cc:Work></rdf:RDF></metadata><defs
     id="defs6"><clipPath
       id="clipPath18"
       clipPathUnits="userSpaceOnUse"><path
         id="path16"
         d="M 0,26.226 H 26.226 V 0 H 0 Z" /></clipPath></defs><g
     transform="matrix(1.3333333,0,0,-1.3333333,0,34.968)"
     id="g10"><g
       id="g12"><g
         clip-path="url(#clipPath18)"
         id="g14"><g
           transform="translate(25.1768,13.113)"
           id="g20"><path
             id="path22"
             style="fill:#377ef9;fill-opacity:1;fill-rule:nonzero;stroke:none"
             d="m 0,0 c 0,-6.652 -5.412,-12.064 -12.064,-12.064 -6.652,0 -12.064,5.412 -12.064,12.064 0,6.652 5.411,12.064 12.064,12.064 C -5.411,12.064 0,6.652 0,0 m -25.177,0 c 0,-7.243 5.871,-13.113 13.113,-13.113 7.243,0 13.113,5.87 13.113,13.113 0,7.242 -5.87,13.113 -13.113,13.113 -7.242,0 -13.113,-5.871 -13.113,-13.113" /></g><g
           transform="translate(7.4751,12.3171)"
           id="g24"><path
             id="path26"
             style="fill:#377ef9;fill-opacity:1;fill-rule:nonzero;stroke:none"
             d="M 0,0 -0.742,-0.742 5.637,-7.121 12.015,-0.742 11.273,0 6.161,-5.112 V 7.615 H 5.112 V -5.112 Z" /></g></g></g></g></svg>